<?xml version="1.0" encoding="UTF-8"?><svg id="a" xmlns="http://www.w3.org/2000/svg" viewBox="0 0 1082.03 240.24"><defs><style>.b{fill:#fff;}</style></defs><path class="b" d="M50.16,209.04c-5.36,4.64-11.96,6.96-19.8,6.96-4.8,0-9.4-1.08-13.8-3.24-2.64-1.28-5.04-3-7.2-5.16v7.2H0v-31.8H9.36v4.8c0,4.8,2.04,9.08,6.12,12.84,4.24,3.76,9.24,5.64,15,5.64,4.96,0,9.12-1.48,12.48-4.44,3.28-2.8,4.92-6.48,4.92-11.04,0-4-1.48-7.08-4.44-9.24-1.6-1.2-3.8-2.36-6.6-3.48-2.8-1.12-6.36-2.2-10.68-3.24-4.32-1.12-8.12-2.4-11.4-3.84-3.28-1.44-5.96-3.12-8.04-5.04-4.32-3.84-6.48-9.16-6.48-15.96,0-6.08,2.52-11.28,7.56-15.6,4.96-4.16,11-6.24,18.12-6.24,2.08,0,4.2,.14,6.36,.42,2.16,.28,4.28,.86,6.36,1.74,1.92,.88,3.64,1.76,5.16,2.64,1.52,.88,3.08,2.16,4.68,3.84,.88,1.04,1.62,1.96,2.22,2.76,.6,.8,1.18,1.84,1.74,3.12,.48,.96,.84,2.16,1.08,3.6,.24,1.44,.44,2.82,.6,4.14,.16,1.32,.28,2.94,.36,4.86h-10.2v-3.48c0-.56-.08-1.3-.24-2.22-.16-.92-.42-1.9-.78-2.94-.36-1.04-.84-2.04-1.44-3-.6-.96-1.34-1.8-2.22-2.52-1.84-1.36-3.9-2.24-6.18-2.64-2.28-.4-4.9-.6-7.86-.6-4.48,0-8.16,1.2-11.04,3.6-2.8,2.32-4.2,5.24-4.2,8.76,0,3.92,1.48,6.92,4.44,9,1.68,1.12,3.66,2.14,5.94,3.06,2.28,.92,4.9,1.7,7.86,2.34,5.52,1.36,10.24,2.88,14.16,4.56,3.92,1.68,6.96,3.52,9.12,5.52,4.4,4.16,6.6,9.76,6.6,16.8s-2.76,12.88-8.28,17.52Z"/><path class="b" d="M99.48,214.8v-6c-1.2,.88-2.4,1.66-3.6,2.34-1.2,.68-2.48,1.34-3.84,1.98-3.84,1.68-7.56,2.52-11.16,2.52-5.68,0-10.36-1.84-14.04-5.52-3.68-3.84-5.52-8.24-5.52-13.2,0-5.6,2.16-10.28,6.48-14.04,4.32-3.6,9.88-5.4,16.68-5.4,2.48,0,5.28,.36,8.4,1.08,1.12,.32,2.22,.66,3.3,1.02,1.08,.36,2.18,.82,3.3,1.38v-10.32c0-3.52-1.08-5.96-3.24-7.32-2.48-1.6-5.8-2.4-9.96-2.4-1.12,0-2.38,.14-3.78,.42-1.4,.28-2.76,.62-4.08,1.02-1.32,.4-2.52,.78-3.6,1.14-1.08,.36-1.86,.62-2.34,.78l-2.88-7.2c2.32-.96,4.34-1.7,6.06-2.22,1.72-.52,3.56-1.02,5.52-1.5,1.96-.48,3.74-.72,5.34-.72,3.6,0,6.8,.34,9.6,1.02,2.8,.68,5.2,1.78,7.2,3.3,4.16,3.12,6.24,7.68,6.24,13.68v34.92h9.48v9.24h-19.56Zm0-24.6c-1.92-1.04-3.96-2-6.12-2.88-2.64-.88-5.24-1.32-7.8-1.32-4.56,0-8.04,1.12-10.44,3.36-2.4,2.16-3.6,4.84-3.6,8.04,0,2.48,.96,4.72,2.88,6.72,1.92,1.92,4.56,2.88,7.92,2.88,2.88,0,6-.84,9.36-2.52,3.12-1.6,5.72-3.48,7.8-5.64v-8.64Z"/><path class="b" d="M198.12,214.8v-44.64c0-5.36-2.52-8.04-7.56-8.04-3.04,0-6.28,.88-9.72,2.64-3.2,1.76-6.2,3.96-9,6.6v43.44h-10.08v-44.64c0-1.44-.16-2.66-.48-3.66-.32-1-.8-1.82-1.44-2.46-1.12-1.28-3.04-1.92-5.76-1.92-2.88,0-6.08,.88-9.6,2.64-1.68,.88-3.26,1.82-4.74,2.82-1.48,1-2.9,2.1-4.26,3.3v34.68h9.36v9.24h-19.44v-51.36h-10.32v-9.24h20.4v5.4c2.24-1.68,4.64-3.12,7.2-4.32,4-1.76,7.96-2.64,11.88-2.64,3.36,0,6.38,.7,9.06,2.1,2.68,1.4,4.78,3.62,6.3,6.66,1.12-.96,2.38-1.86,3.78-2.7,1.4-.84,2.9-1.7,4.5-2.58,4.48-2.32,8.68-3.48,12.6-3.48,5.28,0,9.48,1.52,12.6,4.56,3.2,3.12,4.8,7.2,4.8,12.24v36.12h8.88v9.24h-18.96Z"/><path class="b" d="M276.6,207.36c-5.6,6.08-12.8,9.12-21.6,9.12-4.56,0-8.8-1-12.72-3-1.36-.64-2.62-1.44-3.78-2.4-1.16-.96-2.3-2.08-3.42-3.36v23.28h10.32v9.24h-20.4v-76.8h-9.6v-9.24h19.68v7.56c2.4-2.8,4.96-4.84,7.68-6.12,4-2,8.2-3,12.6-3,8.48,0,15.52,3.04,21.12,9.12,5.6,5.92,8.4,13.4,8.4,22.44s-2.76,17.08-8.28,23.16Zm-7.08-39.24c-3.76-4.16-8.68-6.24-14.76-6.24-5.76,0-10.48,2.04-14.16,6.12-3.84,4.08-5.76,9.52-5.76,16.32s1.96,12.28,5.88,16.44c3.84,4.16,8.64,6.24,14.4,6.24s10.84-2.08,14.52-6.24c3.76-4.16,5.64-9.56,5.64-16.2s-1.92-12.2-5.76-16.44Z"/><path class="b" d="M292.08,214.8v-76.08h-10.32v-9.24h20.4v76.08h10.2v9.24h-20.28Z"/><path class="b" d="M320.04,187.8c.72,5.44,2.8,9.88,6.24,13.32,4.16,4.32,9.44,6.48,15.84,6.48,1.04,0,2.34-.18,3.9-.54,1.56-.36,3.1-.78,4.62-1.26,1.52-.48,2.92-.96,4.2-1.44,1.28-.48,2.2-.84,2.76-1.08l2.52,8.28c-2.72,1.04-5.08,1.86-7.08,2.46-2,.6-4.08,1.16-6.24,1.68-2.16,.52-4.04,.78-5.64,.78-9.04,0-16.48-3.04-22.32-9.12-5.92-5.92-8.88-13.52-8.88-22.8s2.88-16.76,8.64-22.92c5.84-6,13.24-9,22.2-9s15.96,2.96,21.48,8.88c2.8,3.04,4.92,6.66,6.36,10.86s2.32,9.34,2.64,15.42h-51.24Zm34.08-20.88c-3.6-3.44-8.2-5.16-13.8-5.16-5.92,0-10.8,2.16-14.64,6.48-2.48,2.72-4.2,6.16-5.16,10.32h39.84c-1.12-4.64-3.2-8.52-6.24-11.64Z"/><path class="b" d="M461.52,174.24c-5.12,4.64-11.84,6.96-20.16,6.96h-16.68v33.6h-21.36v-9.24h10.8v-66.84h-10.8v-9.24h36.84c4.48,0,8.5,.56,12.06,1.68,3.56,1.12,6.62,2.84,9.18,5.16,5.2,4.48,7.8,10.84,7.8,19.08,0,7.76-2.56,14.04-7.68,18.84Zm-4.08-26.28c-.8-2.16-1.92-3.88-3.36-5.16-2.96-2.72-8-4.08-15.12-4.08h-14.28v33.24h14.28c3.36,0,6.26-.34,8.7-1.02,2.44-.68,4.5-1.7,6.18-3.06,3.2-2.48,4.8-6.4,4.8-11.76,0-3.28-.4-6-1.2-8.16Z"/><path class="b" d="M513.36,214.8v-44.64c0-5.36-2.64-8.04-7.92-8.04-3.12,0-6.44,.88-9.96,2.64-1.76,.88-3.38,1.82-4.86,2.82-1.48,1-2.9,2.1-4.26,3.3v34.68h9.36v9.24h-19.2v-5.4h-.24v-70.68h-10.32v-9.24h20.4v30.24c1.2-.88,2.42-1.68,3.66-2.4,1.24-.72,2.54-1.4,3.9-2.04,4.24-1.76,8.36-2.64,12.36-2.64,5.2,0,9.36,1.52,12.48,4.56,3.12,3.12,4.68,7.2,4.68,12.24v36.12h9.12v9.24h-19.2Z"/><path class="b" d="M582.48,207.24c-5.76,6.16-12.96,9.24-21.6,9.24s-15.84-3.08-21.6-9.24c-5.76-6.08-8.64-13.64-8.64-22.68s2.88-16.52,8.64-22.68c5.76-6.16,12.96-9.24,21.6-9.24s15.84,3.08,21.6,9.24c5.76,6.16,8.64,13.72,8.64,22.68s-2.88,16.6-8.64,22.68Zm-7.2-38.88c-3.84-4.16-8.64-6.24-14.4-6.24s-10.56,2.08-14.4,6.24c-3.76,4.24-5.64,9.64-5.64,16.2s1.88,11.96,5.64,16.2c3.84,4.16,8.64,6.24,14.4,6.24s10.56-2.08,14.4-6.24c3.76-4.24,5.64-9.64,5.64-16.2s-1.88-11.96-5.64-16.2Z"/><path class="b" d="M611.4,216.12c-1.92,0-3.66-.26-5.22-.78-1.56-.52-2.9-1.38-4.02-2.58-2-2.24-3-5.32-3-9.24v-40.08h-10.08v-9.24h10.08v-12.72l10.08-.12v12.84h11.88v9.24h-11.88v38.88c0,1.12,.08,1.94,.24,2.46,.16,.52,.32,.9,.48,1.14,.16,.16,.42,.32,.78,.48,.36,.16,.9,.24,1.62,.24l8.76-1.44v9.36l-9.72,1.56Z"/><path class="b" d="M671.04,207.24c-5.76,6.16-12.96,9.24-21.6,9.24s-15.84-3.08-21.6-9.24c-5.76-6.08-8.64-13.64-8.64-22.68s2.88-16.52,8.64-22.68c5.76-6.16,12.96-9.24,21.6-9.24s15.84,3.08,21.6,9.24c5.76,6.16,8.64,13.72,8.64,22.68s-2.88,16.6-8.64,22.68Zm-7.2-38.88c-3.84-4.16-8.64-6.24-14.4-6.24s-10.56,2.08-14.4,6.24c-3.76,4.24-5.64,9.64-5.64,16.2s1.88,11.96,5.64,16.2c3.84,4.16,8.64,6.24,14.4,6.24s10.56-2.08,14.4-6.24c3.76-4.24,5.64-9.64,5.64-16.2s-1.88-11.96-5.64-16.2Z"/><path class="b" d="M799.85,192.24c-1.96,4.96-4.94,9.28-8.94,12.96-7.84,7.2-17.88,10.8-30.12,10.8-12.96,0-23.56-4.12-31.8-12.36-4.24-4.08-7.38-8.76-9.42-14.04-2.04-5.28-3.06-11.12-3.06-17.52,0-12.56,4.08-23.04,12.24-31.44,8.08-8.32,18.24-12.48,30.48-12.48,6.56,0,12.84,1.44,18.84,4.32,4.16,2.08,7.76,4.64,10.8,7.68v-4.68h9.24v24.48h-8.76c-1.2-4.08-2.76-7.42-4.68-10.02-1.92-2.6-4.28-4.82-7.08-6.66-5.68-3.6-11.76-5.4-18.24-5.4-9.36,0-17.08,3.16-23.16,9.48-6.08,6.32-9.12,14.56-9.12,24.72s3.16,18.12,9.48,24.6c6.24,6.4,14.36,9.6,24.36,9.6,7.92,0,14.88-2.2,20.88-6.6,5.28-3.92,8.6-9.32,9.96-16.2h-33.24v-9.24h44.4c-.08,7.04-1.1,13.04-3.06,18Z"/><path class="b" d="M838.92,214.8v-6c-1.2,.88-2.4,1.66-3.6,2.34-1.2,.68-2.48,1.34-3.84,1.98-3.84,1.68-7.56,2.52-11.16,2.52-5.68,0-10.36-1.84-14.04-5.52-3.68-3.84-5.52-8.24-5.52-13.2,0-5.6,2.16-10.28,6.48-14.04,4.32-3.6,9.88-5.4,16.68-5.4,2.48,0,5.28,.36,8.4,1.08,1.12,.32,2.22,.66,3.3,1.02,1.08,.36,2.18,.82,3.3,1.38v-10.32c0-3.52-1.08-5.96-3.24-7.32-2.48-1.6-5.8-2.4-9.96-2.4-1.12,0-2.38,.14-3.78,.42-1.4,.28-2.76,.62-4.08,1.02-1.32,.4-2.52,.78-3.6,1.14-1.08,.36-1.86,.62-2.34,.78l-2.88-7.2c2.32-.96,4.34-1.7,6.06-2.22,1.72-.52,3.56-1.02,5.52-1.5,1.96-.48,3.74-.72,5.34-.72,3.6,0,6.8,.34,9.6,1.02,2.8,.68,5.2,1.78,7.2,3.3,4.16,3.12,6.24,7.68,6.24,13.68v34.92h9.48v9.24h-19.56Zm0-24.6c-1.92-1.04-3.96-2-6.12-2.88-2.64-.88-5.24-1.32-7.8-1.32-4.56,0-8.04,1.12-10.44,3.36-2.4,2.16-3.6,4.84-3.6,8.04,0,2.48,.96,4.72,2.88,6.72,1.92,1.92,4.56,2.88,7.92,2.88,2.88,0,6-.84,9.36-2.52,3.12-1.6,5.72-3.48,7.8-5.64v-8.64Z"/><path class="b" d="M864.12,214.8v-76.08h-10.32v-9.24h20.4v76.08h10.2v9.24h-20.28Z"/><path class="b" d="M892.91,214.8v-76.08h-10.32v-9.24h20.4v76.08h10.2v9.24h-20.28Z"/><path class="b" d="M920.87,187.8c.72,5.44,2.8,9.88,6.24,13.32,4.16,4.32,9.44,6.48,15.84,6.48,1.04,0,2.34-.18,3.9-.54,1.56-.36,3.1-.78,4.62-1.26,1.52-.48,2.92-.96,4.2-1.44,1.28-.48,2.2-.84,2.76-1.08l2.52,8.28c-2.72,1.04-5.08,1.86-7.08,2.46-2,.6-4.08,1.16-6.24,1.68-2.16,.52-4.04,.78-5.64,.78-9.04,0-16.48-3.04-22.32-9.12-5.92-5.92-8.88-13.52-8.88-22.8s2.88-16.76,8.64-22.92c5.84-6,13.24-9,22.2-9s15.96,2.96,21.48,8.88c2.8,3.04,4.92,6.66,6.36,10.86,1.44,4.2,2.32,9.34,2.64,15.42h-51.24Zm34.08-20.88c-3.6-3.44-8.2-5.16-13.8-5.16-5.92,0-10.8,2.16-14.64,6.48-2.48,2.72-4.2,6.16-5.16,10.32h39.84c-1.12-4.64-3.2-8.52-6.24-11.64Z"/><path class="b" d="M1010.63,163.2c-4,0-7.38,.48-10.14,1.44-2.76,.96-4.98,2.2-6.66,3.72-1.68,1.52-2.98,3.28-3.9,5.28-.92,2-1.38,4.8-1.38,8.4v23.52h11.64v9.24h-21.72v-51.36h-10.8v-9.24h20.88v6c.64-.8,1.36-1.36,2.16-1.68,.8-.32,1.64-.72,2.52-1.2,1.2-.56,2.52-1.04,3.96-1.44,1.44-.4,2.94-.72,4.5-.96,1.56-.24,3.12-.4,4.68-.48,1.56-.08,3.02-.12,4.38-.12l4.08,.12v8.76h-4.2Z"/><path class="b" d="M1072.79,163.44l-29.04,76.8h-9.6l10.32-28.92-19.68-47.88h-9.96v-9.24h16.68l2.52,6.6,15.36,37.68,13.32-35.04h-8.16v-9.24h27.48v9.24h-9.24Z"/></svg>